HIERARCHY
ROOT Hips
{
	OFFSET 0.000000 0.000000 0.000000
	CHANNELS 6 Xposition Yposition Zposition Xrotation Yrotation Zrotation
	JOINT Spine
	{
		OFFSET 0.000000 0.049001 0.073502
		CHANNELS 3 Xrotation Yrotation Zrotation
		JOINT Spine1
		{
			OFFSET 0.000000 0.017018 0.096514
			CHANNELS 3 Xrotation Yrotation Zrotation
			JOINT Spine2
			{
				OFFSET 0.000000 0.008542 0.097630
				CHANNELS 3 Xrotation Yrotation Zrotation
				JOINT Spine3
				{
					OFFSET 0.000000 0.000000 0.098003
					CHANNELS 3 Xrotation Yrotation Zrotation
					JOINT Neck
					{
						OFFSET 0.000000 -0.036751 0.257258
						CHANNELS 3 Xrotation Yrotation Zrotation
						JOINT Head
						{
							OFFSET 0.000000 -0.023400 0.132707
							CHANNELS 3 Xrotation Yrotation Zrotation
							End Site
							{
								OFFSET 0.000000 0.000000 0.000000
							}
						}
					}
					JOINT RightShoulder
					{
						OFFSET -0.030410 -0.050683 0.164214
						CHANNELS 3 Xrotation Yrotation Zrotation
						JOINT RightArm
						{
							OFFSET -0.151036 0.000000 0.000000
							CHANNELS 3 Xrotation Yrotation Zrotation
							JOINT RightForeArm
							{
								OFFSET -0.279942 0.000000 0.000000
								CHANNELS 3 Xrotation Yrotation Zrotation
								JOINT RightHand
								{
									OFFSET -0.265034 0.000000 0.000000
									CHANNELS 3 Xrotation Yrotation Zrotation
									JOINT RightHandEnd
									{
										OFFSET -0.071866 0.000000 0.000000
										CHANNELS 3 Xrotation Yrotation Zrotation
										End Site
										{
											OFFSET 0.000000 0.000000 0.000000
										}
									}
									JOINT RightHandThumb1
									{
										OFFSET -0.028746 -0.047911 -0.019164
										CHANNELS 3 Xrotation Yrotation Zrotation
										End Site
										{
											OFFSET 0.000000 0.000000 0.000000
										}
									}
								}
							}
						}
					}
					JOINT LeftShoulder
					{
						OFFSET 0.030410 -0.050683 0.164214
						CHANNELS 3 Xrotation Yrotation Zrotation
						JOINT LeftArm
						{
							OFFSET 0.151036 0.000000 0.000000
							CHANNELS 3 Xrotation Yrotation Zrotation
							JOINT LeftForeArm
							{
								OFFSET 0.279942 0.000000 0.000000
								CHANNELS 3 Xrotation Yrotation Zrotation
								JOINT LeftHand
								{
									OFFSET 0.265034 0.000000 0.000000
									CHANNELS 3 Xrotation Yrotation Zrotation
									JOINT LeftHandEnd
									{
										OFFSET 0.071866 0.000000 0.000000
										CHANNELS 3 Xrotation Yrotation Zrotation
										End Site
										{
											OFFSET 0.000000 0.000000 0.000000
										}
									}
									JOINT LeftHandThumb1
									{
										OFFSET 0.028746 -0.047911 -0.019164
										CHANNELS 3 Xrotation Yrotation Zrotation
										End Site
										{
											OFFSET 0.000000 0.000000 0.000000
										}
									}
								}
							}
						}
					}
				}
			}
		}
	}
	JOINT RightUpLeg
	{
		OFFSET -0.090216 0.000000 -0.026355
		CHANNELS 3 Xrotation Yrotation Zrotation
		JOINT RightLeg
		{
			OFFSET 0.000000 0.000000 -0.402871
			CHANNELS 3 Xrotation Yrotation Zrotation
			JOINT RightFoot
			{
				OFFSET 0.000000 0.000000 -0.414145
				CHANNELS 3 Xrotation Yrotation Zrotation
				JOINT RightToeBase
				{
					OFFSET 0.000000 -0.146359 -0.053270
					CHANNELS 3 Xrotation Yrotation Zrotation
					End Site
					{
						OFFSET 0.000000 0.000000 0.000000
					}
				}
			}
		}
	}
	JOINT LeftUpLeg
	{
		OFFSET 0.090216 0.000000 -0.026355
		CHANNELS 3 Xrotation Yrotation Zrotation
		JOINT LeftLeg
		{
			OFFSET 0.000000 0.000000 -0.402871
			CHANNELS 3 Xrotation Yrotation Zrotation
			JOINT LeftFoot
			{
				OFFSET 0.000000 0.000000 -0.414145
				CHANNELS 3 Xrotation Yrotation Zrotation
				JOINT LeftToeBase
				{
					OFFSET 0.000000 -0.146359 -0.053270
					CHANNELS 3 Xrotation Yrotation Zrotation
					End Site
					{
						OFFSET 0.000000 0.000000 0.000000
					}
				}
			}
		}
	}
}
MOTION
Frames: 6
Frame Time: 0.033333
-0.487436 -0.300342 0.911797 1.012200 -1.751100 92.728300 -0.891600 1.074700 0.375700 -1.185800 -0.123200 0.006500 6.355600 -0.083400 -0.275000 3.016000 -0.402100 0.103500 10.723100 1.079000 5.331600 1.816700 5.223100 11.427500 4.798800 6.731600 -6.610900 -6.115200 -30.182400 10.307500 0.000000 0.000000 0.804100 -20.124700 13.749400 3.220700 0.000000 0.000000 0.000000 0.000000 0.000000 0.000000 3.998100 -7.872900 9.318300 13.642900 10.070200 -25.387100 0.000000 0.000000 0.170200 -16.319400 -6.671000 1.365700 0.000000 0.000000 0.000000 0.000000 0.000000 0.000000 0.261100 -2.196900 -33.638200 7.128000 0.000000 0.000000 -8.194000 1.710400 -0.595100 0.585800 0.000000 0.000000 0.579900 2.188200 25.589800 8.991300 0.000000 0.000000 -5.650700 3.502500 1.557100 -4.928700 0.000000 0.000000 
-0.487431 -0.300467 0.911807 1.017200 -1.747500 92.714700 -0.875800 1.096300 0.376700 -1.180600 -0.114500 0.007800 6.341800 -0.081800 -0.280100 3.008300 -0.403800 0.103000 10.678400 1.074600 5.319200 1.841500 5.199500 11.418300 4.808800 6.717400 -6.608100 -6.156200 -30.225700 10.298400 0.000000 0.000000 0.765800 -20.126900 13.711900 3.217700 0.000000 0.000000 0.000000 0.000000 0.000000 0.000000 4.005200 -7.877100 9.343000 13.614300 10.055400 -25.360200 0.000000 0.000000 0.150900 -16.381900 -6.696600 1.362200 0.000000 0.000000 0.000000 0.000000 0.000000 0.000000 0.260600 -2.200600 -33.652300 7.122700 0.000000 0.000000 -8.198700 1.712700 -0.566000 0.605000 0.000000 0.000000 0.580700 2.191200 25.562000 8.978200 0.000000 0.000000 -5.648400 3.496500 1.601200 -4.917600 0.000000 0.000000 
-0.487474 -0.300647 0.911804 1.031600 -1.732000 92.702800 -0.862700 1.137300 0.376700 -1.177000 -0.105700 0.009900 6.339500 -0.080600 -0.285700 2.998000 -0.407000 0.104600 10.601700 1.072400 5.304100 1.856000 5.172300 11.392100 4.821900 6.702400 -6.604100 -6.203100 -30.284300 10.273700 0.000000 0.000000 0.740600 -20.139600 13.667500 3.206500 0.000000 0.000000 0.000000 0.000000 0.000000 0.000000 4.012300 -7.894500 9.346500 13.566600 10.055800 -25.290800 0.000000 0.000000 0.119100 -16.465500 -6.739600 1.388400 0.000000 0.000000 0.000000 0.000000 0.000000 0.000000 0.241600 -2.195500 -33.676300 7.126100 0.000000 0.000000 -8.212700 1.728900 -0.527100 0.653300 0.000000 0.000000 0.564100 2.203700 25.501500 8.964800 0.000000 0.000000 -5.642300 3.506500 1.689600 -4.907500 0.000000 0.000000 
-0.487553 -0.300805 0.911797 1.044800 -1.716300 92.703500 -0.851300 1.172400 0.376200 -1.173900 -0.094700 0.011400 6.351200 -0.084700 -0.282700 2.991400 -0.412000 0.110100 10.526800 1.076700 5.292000 1.857500 5.166600 11.345800 4.838700 6.681600 -6.614600 -6.228500 -30.312100 10.253700 0.000000 0.000000 0.748000 -20.178900 13.674400 3.197700 0.000000 0.000000 0.000000 0.000000 0.000000 0.000000 4.028400 -7.912800 9.317900 13.529500 10.061600 -25.233300 0.000000 0.000000 0.120000 -16.513700 -6.738100 1.428100 0.000000 0.000000 0.000000 0.000000 0.000000 0.000000 0.219000 -2.189600 -33.703400 7.133000 0.000000 0.000000 -8.219700 1.741800 -0.497800 0.684000 0.000000 0.000000 0.544700 2.216500 25.429800 8.950600 0.000000 0.000000 -5.627300 3.526800 1.779500 -4.921600 0.000000 0.000000 
-0.487639 -0.300901 0.911797 1.053500 -1.698600 92.716100 -0.845800 1.192900 0.375500 -1.173200 -0.088300 0.013200 6.366500 -0.086200 -0.269700 2.990300 -0.416500 0.115400 10.482600 1.086000 5.285200 1.864400 5.181700 11.293600 4.851100 6.650500 -6.627100 -6.256000 -30.301600 10.222700 0.000000 0.000000 0.780000 -20.212200 13.730900 3.200000 0.000000 0.000000 0.000000 0.000000 0.000000 0.000000 4.050200 -7.917300 9.272100 13.530400 10.051100 -25.216800 0.000000 0.000000 0.150200 -16.527500 -6.681300 1.444900 0.000000 0.000000 0.000000 0.000000 0.000000 0.000000 0.195500 -2.184200 -33.737100 7.136800 0.000000 0.000000 -8.215900 1.743100 -0.474300 0.655300 0.000000 0.000000 0.527400 2.227800 25.374000 8.927700 0.000000 0.000000 -5.601100 3.544100 1.833200 -4.954800 0.000000 0.000000 
-0.487695 -0.300962 0.911809 1.060000 -1.673900 92.731300 -0.853700 1.203500 0.377800 -1.175400 -0.089200 0.012300 6.380300 -0.076600 -0.254100 2.993500 -0.417100 0.113500 10.471200 1.095200 5.282800 1.881200 5.193100 11.255900 4.861800 6.617200 -6.625900 -6.300500 -30.285600 10.194200 0.000000 0.000000 0.796100 -20.192800 13.749900 3.205200 0.000000 0.000000 0.000000 0.000000 0.000000 0.000000 4.064000 -7.910300 9.230900 13.563500 10.028400 -25.213300 0.000000 0.000000 0.149200 -16.544600 -6.650700 1.442000 0.000000 0.000000 0.000000 0.000000 0.000000 0.000000 0.173300 -2.181100 -33.784200 7.125700 0.000000 0.000000 -8.209700 1.738100 -0.443100 0.603100 0.000000 0.000000 0.511300 2.238000 25.356700 8.895400 0.000000 0.000000 -5.574200 3.551600 1.837200 -4.972800 0.000000 0.000000 
